<mxfile host="app.diagrams.net" modified="2021-07-08T17:09:55.415Z" agent="5.0 (Windows NT 10.0; Win64; x64) AppleWebKit/537.36 (KHTML, like Gecko) Chrome/91.0.4472.124 Safari/537.36" etag="biVH_H0IKoCMX6z4m_9X" version="14.7.6" type="github">
  <diagram name="Page-1" id="74e2e168-ea6b-b213-b513-2b3c1d86103e">
    <mxGraphModel dx="2076" dy="1094" grid="1" gridSize="1" guides="1" tooltips="1" connect="1" arrows="1" fold="1" page="1" pageScale="1" pageWidth="1100" pageHeight="850" background="none" math="0" shadow="0">
      <root>
        <mxCell id="0" />
        <mxCell id="1" parent="0" />
        <mxCell id="77e6c97f196da883-1" value="游戏流程" style="swimlane;html=1;childLayout=stackLayout;startSize=20;rounded=0;shadow=0;labelBackgroundColor=none;strokeWidth=1;fontFamily=Verdana;fontSize=8;align=center;" parent="1" vertex="1">
          <mxGeometry x="60" y="14" width="890" height="1161" as="geometry">
            <mxRectangle x="70" y="40" width="60" height="20" as="alternateBounds" />
          </mxGeometry>
        </mxCell>
        <mxCell id="77e6c97f196da883-26" style="edgeStyle=orthogonalEdgeStyle;rounded=1;html=1;labelBackgroundColor=none;startArrow=none;startFill=0;startSize=5;endArrow=classicThin;endFill=1;endSize=5;jettySize=auto;orthogonalLoop=1;strokeWidth=1;fontFamily=Verdana;fontSize=8;entryX=0.5;entryY=0;entryDx=0;entryDy=0;" parent="77e6c97f196da883-1" source="77e6c97f196da883-8" target="6CwbQjScLUg3RIBNC60B-1" edge="1">
          <mxGeometry relative="1" as="geometry">
            <mxPoint x="613" y="83.48275862068965" as="targetPoint" />
            <Array as="points">
              <mxPoint x="812" y="83" />
              <mxPoint x="812" y="108" />
            </Array>
          </mxGeometry>
        </mxCell>
        <mxCell id="6CwbQjScLUg3RIBNC60B-108" style="edgeStyle=orthogonalEdgeStyle;rounded=1;orthogonalLoop=1;jettySize=auto;html=1;entryX=0.5;entryY=0;entryDx=0;entryDy=0;" edge="1" parent="77e6c97f196da883-1" source="6CwbQjScLUg3RIBNC60B-1" target="6CwbQjScLUg3RIBNC60B-6">
          <mxGeometry relative="1" as="geometry">
            <Array as="points">
              <mxPoint x="150" y="138" />
              <mxPoint x="150" y="157" />
            </Array>
          </mxGeometry>
        </mxCell>
        <mxCell id="6CwbQjScLUg3RIBNC60B-139" style="edgeStyle=orthogonalEdgeStyle;rounded=1;orthogonalLoop=1;jettySize=auto;html=1;entryX=0.5;entryY=0;entryDx=0;entryDy=0;exitX=1;exitY=0.5;exitDx=0;exitDy=0;" edge="1" parent="77e6c97f196da883-1" source="6CwbQjScLUg3RIBNC60B-6" target="6CwbQjScLUg3RIBNC60B-128">
          <mxGeometry relative="1" as="geometry">
            <Array as="points">
              <mxPoint x="337" y="179" />
              <mxPoint x="620" y="179" />
            </Array>
          </mxGeometry>
        </mxCell>
        <mxCell id="6CwbQjScLUg3RIBNC60B-140" style="edgeStyle=orthogonalEdgeStyle;rounded=1;orthogonalLoop=1;jettySize=auto;html=1;exitX=-0.006;exitY=0.499;exitDx=0;exitDy=0;exitPerimeter=0;" edge="1" parent="77e6c97f196da883-1" source="6CwbQjScLUg3RIBNC60B-128" target="6CwbQjScLUg3RIBNC60B-6">
          <mxGeometry relative="1" as="geometry">
            <Array as="points">
              <mxPoint x="506" y="244" />
              <mxPoint x="506" y="243" />
              <mxPoint x="151" y="243" />
            </Array>
          </mxGeometry>
        </mxCell>
        <mxCell id="6CwbQjScLUg3RIBNC60B-141" style="edgeStyle=orthogonalEdgeStyle;rounded=1;orthogonalLoop=1;jettySize=auto;html=1;entryX=0.5;entryY=1;entryDx=0;entryDy=0;exitX=0.5;exitY=1;exitDx=0;exitDy=0;" edge="1" parent="77e6c97f196da883-1" source="6CwbQjScLUg3RIBNC60B-128" target="77e6c97f196da883-8">
          <mxGeometry relative="1" as="geometry">
            <Array as="points">
              <mxPoint x="773" y="312" />
              <mxPoint x="55" y="312" />
            </Array>
          </mxGeometry>
        </mxCell>
        <mxCell id="6CwbQjScLUg3RIBNC60B-143" style="edgeStyle=orthogonalEdgeStyle;rounded=1;orthogonalLoop=1;jettySize=auto;html=1;entryX=0.5;entryY=1;entryDx=0;entryDy=0;" edge="1" parent="77e6c97f196da883-1" source="6CwbQjScLUg3RIBNC60B-14" target="77e6c97f196da883-8">
          <mxGeometry relative="1" as="geometry" />
        </mxCell>
        <mxCell id="6CwbQjScLUg3RIBNC60B-74" style="edgeStyle=orthogonalEdgeStyle;rounded=1;orthogonalLoop=1;jettySize=auto;html=1;entryX=0.5;entryY=0;entryDx=0;entryDy=0;" edge="1" parent="77e6c97f196da883-1" source="6CwbQjScLUg3RIBNC60B-3" target="6CwbQjScLUg3RIBNC60B-75">
          <mxGeometry relative="1" as="geometry">
            <mxPoint x="279" y="393" as="targetPoint" />
          </mxGeometry>
        </mxCell>
        <mxCell id="6CwbQjScLUg3RIBNC60B-76" value="ClientTravel&lt;br&gt;PORT=7777&lt;br&gt;Options=&quot;Emai=xxx&quot;" style="edgeLabel;html=1;align=center;verticalAlign=middle;resizable=0;points=[];" vertex="1" connectable="0" parent="6CwbQjScLUg3RIBNC60B-74">
          <mxGeometry x="0.1383" y="2" relative="1" as="geometry">
            <mxPoint x="-73" y="3" as="offset" />
          </mxGeometry>
        </mxCell>
        <mxCell id="6CwbQjScLUg3RIBNC60B-125" style="edgeStyle=orthogonalEdgeStyle;rounded=1;orthogonalLoop=1;jettySize=auto;html=1;entryX=0.5;entryY=0;entryDx=0;entryDy=0;exitX=0.5;exitY=1;exitDx=0;exitDy=0;" edge="1" parent="77e6c97f196da883-1" source="6CwbQjScLUg3RIBNC60B-14" target="6CwbQjScLUg3RIBNC60B-3">
          <mxGeometry relative="1" as="geometry">
            <Array as="points">
              <mxPoint x="824" y="352" />
              <mxPoint x="39" y="352" />
            </Array>
          </mxGeometry>
        </mxCell>
        <mxCell id="6CwbQjScLUg3RIBNC60B-145" style="edgeStyle=orthogonalEdgeStyle;rounded=1;orthogonalLoop=1;jettySize=auto;html=1;" edge="1" parent="77e6c97f196da883-1" source="6CwbQjScLUg3RIBNC60B-101" target="6CwbQjScLUg3RIBNC60B-103">
          <mxGeometry relative="1" as="geometry" />
        </mxCell>
        <mxCell id="6CwbQjScLUg3RIBNC60B-147" style="edgeStyle=orthogonalEdgeStyle;rounded=1;orthogonalLoop=1;jettySize=auto;html=1;entryX=1;entryY=0.5;entryDx=0;entryDy=0;exitX=0.5;exitY=1;exitDx=0;exitDy=0;" edge="1" parent="77e6c97f196da883-1" source="6CwbQjScLUg3RIBNC60B-103" target="6CwbQjScLUg3RIBNC60B-146">
          <mxGeometry relative="1" as="geometry" />
        </mxCell>
        <mxCell id="6CwbQjScLUg3RIBNC60B-174" style="edgeStyle=orthogonalEdgeStyle;rounded=1;orthogonalLoop=1;jettySize=auto;html=1;entryX=0;entryY=0.5;entryDx=0;entryDy=0;" edge="1" parent="77e6c97f196da883-1" source="6CwbQjScLUg3RIBNC60B-166" target="6CwbQjScLUg3RIBNC60B-173">
          <mxGeometry relative="1" as="geometry">
            <Array as="points">
              <mxPoint x="270" y="1104" />
              <mxPoint x="391" y="1104" />
              <mxPoint x="391" y="642" />
            </Array>
          </mxGeometry>
        </mxCell>
        <mxCell id="6CwbQjScLUg3RIBNC60B-175" value="ClientTravel&lt;br&gt;PORT=7778&lt;br&gt;Options=&quot;邮箱?姓名?装备等&quot;" style="edgeLabel;html=1;align=center;verticalAlign=middle;resizable=0;points=[];" vertex="1" connectable="0" parent="6CwbQjScLUg3RIBNC60B-174">
          <mxGeometry x="-0.1155" y="1" relative="1" as="geometry">
            <mxPoint x="-94" y="115" as="offset" />
          </mxGeometry>
        </mxCell>
        <mxCell id="6CwbQjScLUg3RIBNC60B-211" style="edgeStyle=orthogonalEdgeStyle;rounded=1;orthogonalLoop=1;jettySize=auto;html=1;" edge="1" parent="77e6c97f196da883-1" source="6CwbQjScLUg3RIBNC60B-207" target="6CwbQjScLUg3RIBNC60B-210">
          <mxGeometry relative="1" as="geometry" />
        </mxCell>
        <mxCell id="6CwbQjScLUg3RIBNC60B-208" style="edgeStyle=orthogonalEdgeStyle;rounded=1;orthogonalLoop=1;jettySize=auto;html=1;entryX=0;entryY=0.508;entryDx=0;entryDy=0;entryPerimeter=0;" edge="1" parent="77e6c97f196da883-1" source="6CwbQjScLUg3RIBNC60B-207" target="6CwbQjScLUg3RIBNC60B-212">
          <mxGeometry relative="1" as="geometry">
            <mxPoint x="561" y="1476.5300000000002" as="targetPoint" />
            <Array as="points">
              <mxPoint x="462" y="1023" />
              <mxPoint x="576" y="1023" />
              <mxPoint x="576" y="641" />
            </Array>
          </mxGeometry>
        </mxCell>
        <mxCell id="6CwbQjScLUg3RIBNC60B-209" value="ClientTravel&lt;br&gt;PORT=7778&lt;br&gt;Options=&quot;邮箱?姓名?装备等&quot;" style="edgeLabel;html=1;align=center;verticalAlign=middle;resizable=0;points=[];" vertex="1" connectable="0" parent="6CwbQjScLUg3RIBNC60B-208">
          <mxGeometry x="-0.1155" y="1" relative="1" as="geometry">
            <mxPoint x="-101" y="80" as="offset" />
          </mxGeometry>
        </mxCell>
        <mxCell id="6CwbQjScLUg3RIBNC60B-218" style="edgeStyle=orthogonalEdgeStyle;rounded=1;orthogonalLoop=1;jettySize=auto;html=1;entryX=0;entryY=0.5;entryDx=0;entryDy=0;exitX=0;exitY=0.5;exitDx=0;exitDy=0;" edge="1" parent="77e6c97f196da883-1" source="6CwbQjScLUg3RIBNC60B-219" target="6CwbQjScLUg3RIBNC60B-75">
          <mxGeometry relative="1" as="geometry">
            <Array as="points">
              <mxPoint x="596" y="832" />
              <mxPoint x="596" y="1131" />
              <mxPoint x="78" y="1131" />
              <mxPoint x="78" y="438" />
            </Array>
          </mxGeometry>
        </mxCell>
        <mxCell id="6CwbQjScLUg3RIBNC60B-222" style="edgeStyle=orthogonalEdgeStyle;rounded=1;orthogonalLoop=1;jettySize=auto;html=1;" edge="1" parent="77e6c97f196da883-1" source="6CwbQjScLUg3RIBNC60B-219" target="6CwbQjScLUg3RIBNC60B-221">
          <mxGeometry relative="1" as="geometry" />
        </mxCell>
        <mxCell id="77e6c97f196da883-2" value="注册与登录" style="swimlane;html=1;startSize=20;" parent="77e6c97f196da883-1" vertex="1">
          <mxGeometry y="20" width="202" height="1141" as="geometry" />
        </mxCell>
        <mxCell id="77e6c97f196da883-8" value="&lt;font style=&quot;font-size: 12px&quot;&gt;输入信息&lt;/font&gt;" style="rounded=1;whiteSpace=wrap;html=1;shadow=0;labelBackgroundColor=none;strokeWidth=1;fontFamily=Verdana;fontSize=8;align=center;" parent="77e6c97f196da883-2" vertex="1">
          <mxGeometry x="13" y="35" width="84" height="43" as="geometry" />
        </mxCell>
        <mxCell id="6CwbQjScLUg3RIBNC60B-3" value="&lt;font style=&quot;font-size: 12px&quot;&gt;登录成功&lt;/font&gt;" style="rounded=1;whiteSpace=wrap;html=1;shadow=0;labelBackgroundColor=none;strokeWidth=1;fontFamily=Verdana;fontSize=8;align=center;" vertex="1" parent="77e6c97f196da883-2">
          <mxGeometry x="8" y="350" width="63" height="43" as="geometry" />
        </mxCell>
        <mxCell id="6CwbQjScLUg3RIBNC60B-6" value="&lt;font style=&quot;font-size: 12px&quot;&gt;创建用户&lt;/font&gt;" style="rounded=1;whiteSpace=wrap;html=1;shadow=0;labelBackgroundColor=none;strokeWidth=1;fontFamily=Verdana;fontSize=8;align=center;" vertex="1" parent="77e6c97f196da883-2">
          <mxGeometry x="119" y="137" width="63" height="43" as="geometry" />
        </mxCell>
        <mxCell id="77e6c97f196da883-3" value="主菜单" style="swimlane;html=1;startSize=20;" parent="77e6c97f196da883-1" vertex="1">
          <mxGeometry x="202" y="20" width="175" height="1141" as="geometry" />
        </mxCell>
        <mxCell id="6CwbQjScLUg3RIBNC60B-164" value="" style="rounded=0;whiteSpace=wrap;html=1;" vertex="1" parent="77e6c97f196da883-3">
          <mxGeometry x="8.53" y="780" width="146" height="157" as="geometry" />
        </mxCell>
        <mxCell id="6CwbQjScLUg3RIBNC60B-165" value="Server" style="rounded=0;whiteSpace=wrap;html=1;" vertex="1" parent="77e6c97f196da883-3">
          <mxGeometry x="8.53" y="780" width="53" height="26" as="geometry" />
        </mxCell>
        <mxCell id="6CwbQjScLUg3RIBNC60B-102" style="edgeStyle=orthogonalEdgeStyle;rounded=1;orthogonalLoop=1;jettySize=auto;html=1;entryX=0.5;entryY=0;entryDx=0;entryDy=0;" edge="1" parent="77e6c97f196da883-3" source="6CwbQjScLUg3RIBNC60B-75" target="6CwbQjScLUg3RIBNC60B-101">
          <mxGeometry relative="1" as="geometry" />
        </mxCell>
        <mxCell id="6CwbQjScLUg3RIBNC60B-75" value="&lt;font style=&quot;font-size: 12px&quot;&gt;主菜单&lt;/font&gt;" style="rounded=1;whiteSpace=wrap;html=1;shadow=0;labelBackgroundColor=none;strokeWidth=1;fontFamily=Verdana;fontSize=8;align=center;" vertex="1" parent="77e6c97f196da883-3">
          <mxGeometry x="55.53" y="397" width="63" height="43" as="geometry" />
        </mxCell>
        <mxCell id="6CwbQjScLUg3RIBNC60B-101" value="进入仓库" style="rounded=1;whiteSpace=wrap;html=1;shadow=0;labelBackgroundColor=none;strokeWidth=1;fontFamily=Verdana;fontSize=8;align=center;" vertex="1" parent="77e6c97f196da883-3">
          <mxGeometry x="55.53" y="464" width="63" height="43" as="geometry" />
        </mxCell>
        <mxCell id="6CwbQjScLUg3RIBNC60B-104" value="邮箱与密码" style="text;html=1;strokeColor=none;fillColor=none;align=center;verticalAlign=middle;whiteSpace=wrap;rounded=0;" vertex="1" parent="77e6c97f196da883-3">
          <mxGeometry x="79" y="38" width="67" height="20" as="geometry" />
        </mxCell>
        <mxCell id="6CwbQjScLUg3RIBNC60B-106" value="邮箱与密码" style="text;html=1;strokeColor=none;fillColor=none;align=center;verticalAlign=middle;whiteSpace=wrap;rounded=0;" vertex="1" parent="77e6c97f196da883-3">
          <mxGeometry x="86" y="137" width="67" height="20" as="geometry" />
        </mxCell>
        <mxCell id="6CwbQjScLUg3RIBNC60B-149" style="edgeStyle=orthogonalEdgeStyle;rounded=1;orthogonalLoop=1;jettySize=auto;html=1;entryX=0.5;entryY=0;entryDx=0;entryDy=0;" edge="1" parent="77e6c97f196da883-3" source="6CwbQjScLUg3RIBNC60B-146" target="6CwbQjScLUg3RIBNC60B-148">
          <mxGeometry relative="1" as="geometry" />
        </mxCell>
        <mxCell id="6CwbQjScLUg3RIBNC60B-146" value="仓库显示" style="rounded=1;whiteSpace=wrap;html=1;shadow=0;labelBackgroundColor=none;strokeWidth=1;fontFamily=Verdana;fontSize=8;align=center;" vertex="1" parent="77e6c97f196da883-3">
          <mxGeometry x="51.03" y="514" width="63" height="43" as="geometry" />
        </mxCell>
        <mxCell id="6CwbQjScLUg3RIBNC60B-151" style="edgeStyle=orthogonalEdgeStyle;rounded=1;orthogonalLoop=1;jettySize=auto;html=1;" edge="1" parent="77e6c97f196da883-3" source="6CwbQjScLUg3RIBNC60B-148" target="6CwbQjScLUg3RIBNC60B-150">
          <mxGeometry relative="1" as="geometry" />
        </mxCell>
        <mxCell id="6CwbQjScLUg3RIBNC60B-148" value="选择装备" style="rounded=1;whiteSpace=wrap;html=1;shadow=0;labelBackgroundColor=none;strokeWidth=1;fontFamily=Verdana;fontSize=8;align=center;" vertex="1" parent="77e6c97f196da883-3">
          <mxGeometry x="51.03" y="582" width="63" height="43" as="geometry" />
        </mxCell>
        <mxCell id="6CwbQjScLUg3RIBNC60B-152" style="edgeStyle=orthogonalEdgeStyle;rounded=1;orthogonalLoop=1;jettySize=auto;html=1;entryX=0;entryY=0.5;entryDx=0;entryDy=0;" edge="1" parent="77e6c97f196da883-3" source="6CwbQjScLUg3RIBNC60B-150" target="6CwbQjScLUg3RIBNC60B-146">
          <mxGeometry relative="1" as="geometry">
            <Array as="points">
              <mxPoint x="30.53" y="674" />
              <mxPoint x="30.53" y="536" />
              <mxPoint x="50.53" y="536" />
            </Array>
          </mxGeometry>
        </mxCell>
        <mxCell id="6CwbQjScLUg3RIBNC60B-150" value="匹配界面" style="rounded=1;whiteSpace=wrap;html=1;shadow=0;labelBackgroundColor=none;strokeWidth=1;fontFamily=Verdana;fontSize=8;align=center;" vertex="1" parent="77e6c97f196da883-3">
          <mxGeometry x="51.03" y="652" width="63" height="43" as="geometry" />
        </mxCell>
        <mxCell id="6CwbQjScLUg3RIBNC60B-163" style="edgeStyle=orthogonalEdgeStyle;rounded=1;orthogonalLoop=1;jettySize=auto;html=1;" edge="1" parent="77e6c97f196da883-3" source="6CwbQjScLUg3RIBNC60B-154" target="6CwbQjScLUg3RIBNC60B-156">
          <mxGeometry relative="1" as="geometry">
            <Array as="points">
              <mxPoint x="82.53" y="775" />
              <mxPoint x="109.53" y="775" />
            </Array>
          </mxGeometry>
        </mxCell>
        <mxCell id="6CwbQjScLUg3RIBNC60B-154" value="开始匹配" style="rounded=1;whiteSpace=wrap;html=1;shadow=0;labelBackgroundColor=none;strokeWidth=1;fontFamily=Verdana;fontSize=8;align=center;" vertex="1" parent="77e6c97f196da883-3">
          <mxGeometry x="51.03" y="720" width="63" height="43" as="geometry" />
        </mxCell>
        <mxCell id="6CwbQjScLUg3RIBNC60B-153" style="edgeStyle=orthogonalEdgeStyle;rounded=1;orthogonalLoop=1;jettySize=auto;html=1;entryX=0.5;entryY=0;entryDx=0;entryDy=0;" edge="1" parent="77e6c97f196da883-3" source="6CwbQjScLUg3RIBNC60B-150" target="6CwbQjScLUg3RIBNC60B-154">
          <mxGeometry relative="1" as="geometry">
            <mxPoint x="107.53" y="743" as="targetPoint" />
          </mxGeometry>
        </mxCell>
        <mxCell id="6CwbQjScLUg3RIBNC60B-156" value="匹配人数+1" style="rounded=1;whiteSpace=wrap;html=1;shadow=0;labelBackgroundColor=none;strokeWidth=1;fontFamily=Verdana;fontSize=8;align=center;" vertex="1" parent="77e6c97f196da883-3">
          <mxGeometry x="78.53" y="793" width="63" height="43" as="geometry" />
        </mxCell>
        <mxCell id="6CwbQjScLUg3RIBNC60B-161" style="edgeStyle=orthogonalEdgeStyle;rounded=1;orthogonalLoop=1;jettySize=auto;html=1;exitX=0;exitY=0.5;exitDx=0;exitDy=0;" edge="1" parent="77e6c97f196da883-3" source="6CwbQjScLUg3RIBNC60B-157" target="6CwbQjScLUg3RIBNC60B-160">
          <mxGeometry relative="1" as="geometry">
            <Array as="points">
              <mxPoint x="41.53" y="896" />
            </Array>
          </mxGeometry>
        </mxCell>
        <mxCell id="6CwbQjScLUg3RIBNC60B-167" style="edgeStyle=orthogonalEdgeStyle;rounded=1;orthogonalLoop=1;jettySize=auto;html=1;entryX=0.5;entryY=0;entryDx=0;entryDy=0;" edge="1" parent="77e6c97f196da883-3" source="6CwbQjScLUg3RIBNC60B-157" target="6CwbQjScLUg3RIBNC60B-166">
          <mxGeometry relative="1" as="geometry" />
        </mxCell>
        <mxCell id="6CwbQjScLUg3RIBNC60B-157" value="满足最低？" style="rhombus;whiteSpace=wrap;html=1;rounded=0;shadow=0;labelBackgroundColor=none;strokeWidth=1;fontFamily=Verdana;fontSize=8;align=center;" vertex="1" parent="77e6c97f196da883-3">
          <mxGeometry x="70.53" y="866" width="80" height="60" as="geometry" />
        </mxCell>
        <mxCell id="6CwbQjScLUg3RIBNC60B-159" style="edgeStyle=orthogonalEdgeStyle;rounded=1;orthogonalLoop=1;jettySize=auto;html=1;entryX=0.5;entryY=0;entryDx=0;entryDy=0;" edge="1" parent="77e6c97f196da883-3" source="6CwbQjScLUg3RIBNC60B-156" target="6CwbQjScLUg3RIBNC60B-157">
          <mxGeometry relative="1" as="geometry">
            <mxPoint x="89.03" y="857" as="targetPoint" />
          </mxGeometry>
        </mxCell>
        <mxCell id="6CwbQjScLUg3RIBNC60B-162" style="edgeStyle=orthogonalEdgeStyle;rounded=1;orthogonalLoop=1;jettySize=auto;html=1;" edge="1" parent="77e6c97f196da883-3" source="6CwbQjScLUg3RIBNC60B-160" target="6CwbQjScLUg3RIBNC60B-156">
          <mxGeometry relative="1" as="geometry">
            <Array as="points">
              <mxPoint x="40.53" y="815" />
            </Array>
          </mxGeometry>
        </mxCell>
        <mxCell id="6CwbQjScLUg3RIBNC60B-160" value="等待" style="rounded=1;whiteSpace=wrap;html=1;shadow=0;labelBackgroundColor=none;strokeWidth=1;fontFamily=Verdana;fontSize=8;align=center;" vertex="1" parent="77e6c97f196da883-3">
          <mxGeometry x="10.53" y="835" width="63" height="43" as="geometry" />
        </mxCell>
        <mxCell id="6CwbQjScLUg3RIBNC60B-166" value="PlayerController" style="rounded=1;whiteSpace=wrap;html=1;shadow=0;labelBackgroundColor=none;strokeWidth=1;fontFamily=Verdana;fontSize=8;align=center;" vertex="1" parent="77e6c97f196da883-3">
          <mxGeometry x="11" y="990" width="112" height="43" as="geometry" />
        </mxCell>
        <mxCell id="6CwbQjScLUg3RIBNC60B-171" value="否" style="text;html=1;strokeColor=none;fillColor=none;align=center;verticalAlign=middle;whiteSpace=wrap;rounded=0;" vertex="1" parent="77e6c97f196da883-3">
          <mxGeometry x="20.53" y="897" width="40" height="20" as="geometry" />
        </mxCell>
        <mxCell id="6CwbQjScLUg3RIBNC60B-172" value="是" style="text;html=1;strokeColor=none;fillColor=none;align=center;verticalAlign=middle;whiteSpace=wrap;rounded=0;" vertex="1" parent="77e6c97f196da883-3">
          <mxGeometry x="62.53" y="913" width="40" height="20" as="geometry" />
        </mxCell>
        <mxCell id="77e6c97f196da883-5" value="大厅服" style="swimlane;html=1;startSize=20;" parent="77e6c97f196da883-1" vertex="1">
          <mxGeometry x="377" y="20" width="191" height="1141" as="geometry" />
        </mxCell>
        <mxCell id="6CwbQjScLUg3RIBNC60B-181" value="" style="rounded=0;whiteSpace=wrap;html=1;" vertex="1" parent="77e6c97f196da883-5">
          <mxGeometry x="23" y="718" width="146" height="157" as="geometry" />
        </mxCell>
        <mxCell id="6CwbQjScLUg3RIBNC60B-182" value="Server" style="rounded=0;whiteSpace=wrap;html=1;" vertex="1" parent="77e6c97f196da883-5">
          <mxGeometry x="23" y="718" width="53" height="26" as="geometry" />
        </mxCell>
        <mxCell id="6CwbQjScLUg3RIBNC60B-180" style="edgeStyle=orthogonalEdgeStyle;rounded=1;orthogonalLoop=1;jettySize=auto;html=1;entryX=0.5;entryY=0;entryDx=0;entryDy=0;" edge="1" parent="77e6c97f196da883-5" source="6CwbQjScLUg3RIBNC60B-173" target="6CwbQjScLUg3RIBNC60B-179">
          <mxGeometry relative="1" as="geometry">
            <Array as="points">
              <mxPoint x="85" y="658" />
              <mxPoint x="61" y="658" />
            </Array>
          </mxGeometry>
        </mxCell>
        <mxCell id="6CwbQjScLUg3RIBNC60B-190" style="edgeStyle=orthogonalEdgeStyle;rounded=1;orthogonalLoop=1;jettySize=auto;html=1;" edge="1" parent="77e6c97f196da883-5" source="6CwbQjScLUg3RIBNC60B-173" target="6CwbQjScLUg3RIBNC60B-183">
          <mxGeometry relative="1" as="geometry">
            <Array as="points">
              <mxPoint x="125" y="623" />
            </Array>
          </mxGeometry>
        </mxCell>
        <mxCell id="6CwbQjScLUg3RIBNC60B-173" value="大厅界面" style="rounded=1;whiteSpace=wrap;html=1;shadow=0;labelBackgroundColor=none;strokeWidth=1;fontFamily=Verdana;fontSize=8;align=center;" vertex="1" parent="77e6c97f196da883-5">
          <mxGeometry x="53" y="601" width="63" height="43" as="geometry" />
        </mxCell>
        <mxCell id="6CwbQjScLUg3RIBNC60B-179" value="显示所有玩家" style="rounded=1;whiteSpace=wrap;html=1;shadow=0;labelBackgroundColor=none;strokeWidth=1;fontFamily=Verdana;fontSize=8;align=center;" vertex="1" parent="77e6c97f196da883-5">
          <mxGeometry x="23" y="673" width="75.5" height="43" as="geometry" />
        </mxCell>
        <mxCell id="6CwbQjScLUg3RIBNC60B-188" style="edgeStyle=orthogonalEdgeStyle;rounded=1;orthogonalLoop=1;jettySize=auto;html=1;entryX=0.5;entryY=0;entryDx=0;entryDy=0;" edge="1" parent="77e6c97f196da883-5" source="6CwbQjScLUg3RIBNC60B-183" target="6CwbQjScLUg3RIBNC60B-185">
          <mxGeometry relative="1" as="geometry" />
        </mxCell>
        <mxCell id="6CwbQjScLUg3RIBNC60B-183" value="匹配人数+1" style="rounded=1;whiteSpace=wrap;html=1;shadow=0;labelBackgroundColor=none;strokeWidth=1;fontFamily=Verdana;fontSize=8;align=center;" vertex="1" parent="77e6c97f196da883-5">
          <mxGeometry x="93" y="731" width="63" height="43" as="geometry" />
        </mxCell>
        <mxCell id="6CwbQjScLUg3RIBNC60B-185" value="满足最低？" style="rhombus;whiteSpace=wrap;html=1;rounded=0;shadow=0;labelBackgroundColor=none;strokeWidth=1;fontFamily=Verdana;fontSize=8;align=center;" vertex="1" parent="77e6c97f196da883-5">
          <mxGeometry x="85" y="804" width="80" height="60" as="geometry" />
        </mxCell>
        <mxCell id="6CwbQjScLUg3RIBNC60B-186" style="edgeStyle=orthogonalEdgeStyle;rounded=1;orthogonalLoop=1;jettySize=auto;html=1;" edge="1" parent="77e6c97f196da883-5" source="6CwbQjScLUg3RIBNC60B-187" target="6CwbQjScLUg3RIBNC60B-183">
          <mxGeometry relative="1" as="geometry">
            <Array as="points">
              <mxPoint x="55" y="753" />
            </Array>
          </mxGeometry>
        </mxCell>
        <mxCell id="6CwbQjScLUg3RIBNC60B-187" value="等待" style="rounded=1;whiteSpace=wrap;html=1;shadow=0;labelBackgroundColor=none;strokeWidth=1;fontFamily=Verdana;fontSize=8;align=center;" vertex="1" parent="77e6c97f196da883-5">
          <mxGeometry x="25" y="773" width="63" height="43" as="geometry" />
        </mxCell>
        <mxCell id="6CwbQjScLUg3RIBNC60B-184" style="edgeStyle=orthogonalEdgeStyle;rounded=1;orthogonalLoop=1;jettySize=auto;html=1;exitX=0;exitY=0.5;exitDx=0;exitDy=0;" edge="1" parent="77e6c97f196da883-5" source="6CwbQjScLUg3RIBNC60B-185" target="6CwbQjScLUg3RIBNC60B-187">
          <mxGeometry relative="1" as="geometry">
            <Array as="points">
              <mxPoint x="56" y="834" />
            </Array>
          </mxGeometry>
        </mxCell>
        <mxCell id="6CwbQjScLUg3RIBNC60B-204" value="否" style="text;html=1;strokeColor=none;fillColor=none;align=center;verticalAlign=middle;whiteSpace=wrap;rounded=0;" vertex="1" parent="77e6c97f196da883-5">
          <mxGeometry x="39" y="834" width="40" height="20" as="geometry" />
        </mxCell>
        <mxCell id="6CwbQjScLUg3RIBNC60B-205" value="是" style="text;html=1;strokeColor=none;fillColor=none;align=center;verticalAlign=middle;whiteSpace=wrap;rounded=0;" vertex="1" parent="77e6c97f196da883-5">
          <mxGeometry x="81" y="850" width="40" height="20" as="geometry" />
        </mxCell>
        <mxCell id="6CwbQjScLUg3RIBNC60B-206" style="edgeStyle=orthogonalEdgeStyle;rounded=1;orthogonalLoop=1;jettySize=auto;html=1;entryX=0.5;entryY=0;entryDx=0;entryDy=0;exitX=0.5;exitY=1;exitDx=0;exitDy=0;" edge="1" parent="77e6c97f196da883-5" target="6CwbQjScLUg3RIBNC60B-207" source="6CwbQjScLUg3RIBNC60B-185">
          <mxGeometry relative="1" as="geometry">
            <mxPoint x="134.0344827586207" y="838.0041379310344" as="sourcePoint" />
          </mxGeometry>
        </mxCell>
        <mxCell id="6CwbQjScLUg3RIBNC60B-207" value="PlayerController" style="rounded=1;whiteSpace=wrap;html=1;shadow=0;labelBackgroundColor=none;strokeWidth=1;fontFamily=Verdana;fontSize=8;align=center;" vertex="1" parent="77e6c97f196da883-5">
          <mxGeometry x="28.5" y="908" width="112" height="43" as="geometry" />
        </mxCell>
        <mxCell id="77e6c97f196da883-6" value="战斗服" style="swimlane;html=1;startSize=20;" parent="77e6c97f196da883-1" vertex="1">
          <mxGeometry x="568" y="20" width="160" height="1141" as="geometry" />
        </mxCell>
        <mxCell id="6CwbQjScLUg3RIBNC60B-215" style="edgeStyle=orthogonalEdgeStyle;rounded=1;orthogonalLoop=1;jettySize=auto;html=1;" edge="1" parent="77e6c97f196da883-6" source="6CwbQjScLUg3RIBNC60B-212" target="6CwbQjScLUg3RIBNC60B-214">
          <mxGeometry relative="1" as="geometry" />
        </mxCell>
        <mxCell id="6CwbQjScLUg3RIBNC60B-212" value="战斗服" style="rounded=1;whiteSpace=wrap;html=1;shadow=0;labelBackgroundColor=none;strokeWidth=1;fontFamily=Verdana;fontSize=8;align=center;" vertex="1" parent="77e6c97f196da883-6">
          <mxGeometry x="47" y="599" width="68" height="43" as="geometry" />
        </mxCell>
        <mxCell id="6CwbQjScLUg3RIBNC60B-217" style="edgeStyle=orthogonalEdgeStyle;rounded=1;orthogonalLoop=1;jettySize=auto;html=1;entryX=0.5;entryY=0;entryDx=0;entryDy=0;" edge="1" parent="77e6c97f196da883-6" source="6CwbQjScLUg3RIBNC60B-214" target="6CwbQjScLUg3RIBNC60B-216">
          <mxGeometry relative="1" as="geometry" />
        </mxCell>
        <mxCell id="6CwbQjScLUg3RIBNC60B-214" value="拾取掉落" style="rounded=1;whiteSpace=wrap;html=1;shadow=0;labelBackgroundColor=none;strokeWidth=1;fontFamily=Verdana;fontSize=8;align=center;" vertex="1" parent="77e6c97f196da883-6">
          <mxGeometry x="47" y="661" width="68" height="43" as="geometry" />
        </mxCell>
        <mxCell id="6CwbQjScLUg3RIBNC60B-220" style="edgeStyle=orthogonalEdgeStyle;rounded=1;orthogonalLoop=1;jettySize=auto;html=1;entryX=0.5;entryY=0;entryDx=0;entryDy=0;" edge="1" parent="77e6c97f196da883-6" source="6CwbQjScLUg3RIBNC60B-216" target="6CwbQjScLUg3RIBNC60B-219">
          <mxGeometry relative="1" as="geometry" />
        </mxCell>
        <mxCell id="6CwbQjScLUg3RIBNC60B-216" value="撤离点" style="rounded=1;whiteSpace=wrap;html=1;shadow=0;labelBackgroundColor=none;strokeWidth=1;fontFamily=Verdana;fontSize=8;align=center;" vertex="1" parent="77e6c97f196da883-6">
          <mxGeometry x="47" y="726" width="68" height="43" as="geometry" />
        </mxCell>
        <mxCell id="6CwbQjScLUg3RIBNC60B-219" value="结算界面" style="rounded=1;whiteSpace=wrap;html=1;shadow=0;labelBackgroundColor=none;strokeWidth=1;fontFamily=Verdana;fontSize=8;align=center;" vertex="1" parent="77e6c97f196da883-6">
          <mxGeometry x="47" y="790" width="68" height="43" as="geometry" />
        </mxCell>
        <mxCell id="77e6c97f196da883-7" value="Lane 6" style="swimlane;html=1;startSize=20;" parent="77e6c97f196da883-1" vertex="1">
          <mxGeometry x="728" y="20" width="162" height="1141" as="geometry" />
        </mxCell>
        <mxCell id="6CwbQjScLUg3RIBNC60B-4" value="是" style="text;html=1;strokeColor=none;fillColor=none;align=center;verticalAlign=middle;whiteSpace=wrap;rounded=0;" vertex="1" parent="77e6c97f196da883-7">
          <mxGeometry x="-42" y="203" width="40" height="20" as="geometry" />
        </mxCell>
        <mxCell id="6CwbQjScLUg3RIBNC60B-1" value="已注册？" style="rhombus;whiteSpace=wrap;html=1;rounded=0;shadow=0;labelBackgroundColor=none;strokeWidth=1;fontFamily=Verdana;fontSize=8;align=center;" vertex="1" parent="77e6c97f196da883-7">
          <mxGeometry x="45" y="88" width="80" height="60" as="geometry" />
        </mxCell>
        <mxCell id="6CwbQjScLUg3RIBNC60B-7" value="否" style="text;html=1;strokeColor=none;fillColor=none;align=center;verticalAlign=middle;whiteSpace=wrap;rounded=0;" vertex="1" parent="77e6c97f196da883-7">
          <mxGeometry x="6" y="119" width="40" height="20" as="geometry" />
        </mxCell>
        <mxCell id="6CwbQjScLUg3RIBNC60B-14" value="密码正确？" style="rhombus;whiteSpace=wrap;html=1;rounded=0;shadow=0;labelBackgroundColor=none;strokeWidth=1;fontFamily=Verdana;fontSize=8;align=center;" vertex="1" parent="77e6c97f196da883-7">
          <mxGeometry x="71" y="262" width="80" height="60" as="geometry" />
        </mxCell>
        <mxCell id="6CwbQjScLUg3RIBNC60B-112" style="edgeStyle=orthogonalEdgeStyle;rounded=1;orthogonalLoop=1;jettySize=auto;html=1;" edge="1" parent="77e6c97f196da883-7" source="6CwbQjScLUg3RIBNC60B-1" target="6CwbQjScLUg3RIBNC60B-14">
          <mxGeometry relative="1" as="geometry" />
        </mxCell>
        <mxCell id="6CwbQjScLUg3RIBNC60B-72" value="是" style="text;html=1;strokeColor=none;fillColor=none;align=center;verticalAlign=middle;whiteSpace=wrap;rounded=0;" vertex="1" parent="77e6c97f196da883-7">
          <mxGeometry x="49" y="157" width="40" height="20" as="geometry" />
        </mxCell>
        <mxCell id="6CwbQjScLUg3RIBNC60B-128" value="邮箱重复？" style="rhombus;whiteSpace=wrap;html=1;rounded=0;shadow=0;labelBackgroundColor=none;strokeWidth=1;fontFamily=Verdana;fontSize=8;align=center;" vertex="1" parent="77e6c97f196da883-7">
          <mxGeometry x="5" y="194" width="80" height="60" as="geometry" />
        </mxCell>
        <mxCell id="6CwbQjScLUg3RIBNC60B-97" value="否" style="text;html=1;strokeColor=none;fillColor=none;align=center;verticalAlign=middle;whiteSpace=wrap;rounded=0;" vertex="1" parent="77e6c97f196da883-7">
          <mxGeometry x="42" y="298" width="40" height="20" as="geometry" />
        </mxCell>
        <mxCell id="6CwbQjScLUg3RIBNC60B-126" value="是" style="text;html=1;strokeColor=none;fillColor=none;align=center;verticalAlign=middle;whiteSpace=wrap;rounded=0;" vertex="1" parent="77e6c97f196da883-7">
          <mxGeometry x="43" y="343" width="40" height="20" as="geometry" />
        </mxCell>
        <mxCell id="6CwbQjScLUg3RIBNC60B-142" value="否" style="text;html=1;strokeColor=none;fillColor=none;align=center;verticalAlign=middle;whiteSpace=wrap;rounded=0;" vertex="1" parent="77e6c97f196da883-7">
          <mxGeometry x="6" y="263" width="40" height="20" as="geometry" />
        </mxCell>
        <mxCell id="6CwbQjScLUg3RIBNC60B-103" value="查看装备与物品" style="rounded=1;whiteSpace=wrap;html=1;shadow=0;labelBackgroundColor=none;strokeWidth=1;fontFamily=Verdana;fontSize=8;align=center;" vertex="1" parent="77e6c97f196da883-7">
          <mxGeometry x="45" y="464" width="68" height="43" as="geometry" />
        </mxCell>
        <mxCell id="6CwbQjScLUg3RIBNC60B-210" value="删除携带装备与物品" style="rounded=1;whiteSpace=wrap;html=1;shadow=0;labelBackgroundColor=none;strokeWidth=1;fontFamily=Verdana;fontSize=8;align=center;" vertex="1" parent="77e6c97f196da883-7">
          <mxGeometry x="35" y="907" width="68" height="43" as="geometry" />
        </mxCell>
        <mxCell id="6CwbQjScLUg3RIBNC60B-221" value="增加携带装备与物品" style="rounded=1;whiteSpace=wrap;html=1;shadow=0;labelBackgroundColor=none;strokeWidth=1;fontFamily=Verdana;fontSize=8;align=center;" vertex="1" parent="77e6c97f196da883-7">
          <mxGeometry x="36" y="790" width="68" height="43" as="geometry" />
        </mxCell>
      </root>
    </mxGraphModel>
  </diagram>
</mxfile>
